<svg width="80" height="80" viewBox="0 0 80 80" fill="none" xmlns="http://www.w3.org/2000/svg">
<circle cx="39.8037" cy="39.7329" r="39.3246" fill="white" stroke="black" stroke-width="0.350749"/>
<path d="M42.6406 13.3354C41.6377 14.7078 40.553 16.7299 39.7832 19.1795M44.7657 40.6964C43.6959 39.5103 42.7945 38.3113 42.0418 37.1103M38.848 27.9457C42.6358 27.1488 50.1316 23.1641 49.8129 13.6011C46.358 14.2652 39.316 17.3732 38.7865 24.4924M38.848 27.9457C38.7522 26.9953 38.7249 26.0634 38.7545 25.1565M38.848 27.9457C38.992 29.375 39.2907 30.8462 39.7832 32.3374M38.7865 24.4924C38.7725 24.7121 38.7618 24.9335 38.7545 25.1565M38.7865 24.4924C38.9083 22.5792 39.2779 20.7873 39.7832 19.1795M38.7545 25.1565C40.6254 24.4038 44.6063 22.1547 45.5626 19.1795M39.7832 19.1795C39.8502 17.0987 38.5497 13.0698 32.8119 13.6011C33.2092 16.4789 35.1597 21.6234 39.7832 19.1795ZM40.117 19.1795L37.0621 17.1872M39.7832 32.3374C39.4074 30.0766 36.7965 24.9971 29.3585 22.7657C28.6933 27.8629 29.8468 36.9134 39.7832 32.3374ZM39.7832 32.3374C35.7972 31.8131 33.7404 29.3682 33.2103 28.2113M39.7832 32.3374C40.304 33.9146 41.0415 35.5141 42.0418 37.1103M42.0418 37.1103C41.4445 34.5867 41.392 28.902 45.9611 26.3518C47.2886 28.6098 48.3632 33.9226 42.0418 37.1103ZM42.0418 37.1103L44.1016 32.86" stroke="#1F7F19" stroke-width="0.776781"/>
<path d="M10.9289 49.4008C11.1343 49.4715 11.2942 49.5826 11.4087 49.7341C11.5266 49.8822 11.5855 50.0556 11.5855 50.2543C11.5855 50.4697 11.5148 50.6566 11.3734 50.8149C11.2319 50.9731 11.04 51.0943 10.7976 51.1785C10.5586 51.2627 10.2959 51.3047 10.0098 51.3047C9.76734 51.3047 9.52492 51.2744 9.2825 51.2138C9.04345 51.1532 8.81618 51.0606 8.6007 50.9361L8.85322 50.3502C9.0081 50.4445 9.17813 50.5169 9.36331 50.5674C9.55186 50.6145 9.73535 50.6381 9.9138 50.6381C10.1562 50.6381 10.3565 50.5943 10.5148 50.5068C10.6764 50.4192 10.7572 50.2964 10.7572 50.1381C10.7572 50.0068 10.7017 49.9075 10.5905 49.8401C10.4828 49.7728 10.3347 49.7391 10.1461 49.7391H9.2825V49.123H10.0855C10.2505 49.123 10.3784 49.0893 10.4693 49.022C10.5636 48.9546 10.6108 48.862 10.6108 48.7442C10.6108 48.6062 10.5434 48.4984 10.4087 48.421C10.2774 48.3435 10.1074 48.3048 9.89865 48.3048C9.74377 48.3048 9.58384 48.3267 9.41886 48.3705C9.25388 48.4109 9.09732 48.4732 8.94918 48.5573L8.70171 47.921C9.07544 47.7291 9.47947 47.6331 9.9138 47.6331C10.1899 47.6331 10.4441 47.6735 10.6764 47.7543C10.9087 47.8351 11.0939 47.953 11.2319 48.1079C11.37 48.2627 11.439 48.4429 11.439 48.6482C11.439 48.8166 11.3936 48.9664 11.3027 49.0977C11.2117 49.229 11.0872 49.33 10.9289 49.4008ZM13.8039 47.6483C14.1304 47.6483 14.4149 47.7122 14.6574 47.8402C14.8998 47.9681 15.0883 48.1567 15.223 48.4058C15.3577 48.655 15.425 48.9563 15.425 49.3098V51.2441H14.6069V50.3957H12.9907V51.2441H12.1827V49.3098C12.1827 48.9563 12.25 48.655 12.3847 48.4058C12.5194 48.1567 12.7079 47.9681 12.9503 47.8402C13.1928 47.7122 13.4773 47.6483 13.8039 47.6483ZM14.6069 49.7391V49.2341C14.6069 48.9412 14.5345 48.7206 14.3897 48.5725C14.2449 48.421 14.048 48.3452 13.7988 48.3452C13.5463 48.3452 13.3476 48.421 13.2029 48.5725C13.0614 48.7206 12.9907 48.9412 12.9907 49.2341V49.7391H14.6069ZM20.9193 47.7089V51.2441H16.2528V47.7089H17.0659V50.5775H18.182V47.7089H18.9951V50.5775H20.1062V47.7089H20.9193ZM21.3991 50.5775V51.9764H20.6415V51.2441H20.0911V50.5775H21.3991ZM25.1004 47.7089V51.2441H24.3075V50.8149C24.0651 51.1414 23.7082 51.3047 23.2368 51.3047C22.8193 51.3047 22.4928 51.1734 22.2571 50.9108C22.0248 50.6448 21.9086 50.2677 21.9086 49.7795V47.7089H22.7268V49.7543C22.7268 50.0371 22.7924 50.2509 22.9237 50.3957C23.0584 50.5371 23.2402 50.6078 23.4692 50.6078C23.7149 50.6078 23.9119 50.532 24.0601 50.3805C24.2082 50.2256 24.2823 49.9984 24.2823 49.6987V47.7089H25.1004ZM28.6155 48.6988C28.3124 48.5237 27.9875 48.4109 27.6407 48.3604V51.2441H26.8226V48.3604C26.4758 48.4109 26.1492 48.5237 25.8428 48.6988L25.565 48.0877C25.8074 47.9429 26.0701 47.8335 26.3529 47.7594C26.6357 47.6853 26.9269 47.6483 27.2266 47.6483C27.5296 47.6483 27.8225 47.6853 28.1054 47.7594C28.3916 47.8335 28.6542 47.9429 28.8932 48.0877L28.6155 48.6988ZM32.6241 47.7089V51.2441H31.806V49.7947H30.1999V51.2441H29.3818V47.7089H30.1999V49.1028H31.806V47.7089H32.6241ZM36.6512 47.7089V51.2441H35.8583V50.8149C35.6159 51.1414 35.259 51.3047 34.7876 51.3047C34.3701 51.3047 34.0435 51.1734 33.8078 50.9108C33.5755 50.6448 33.4594 50.2677 33.4594 49.7795V47.7089H34.2775V49.7543C34.2775 50.0371 34.3432 50.2509 34.4745 50.3957C34.6092 50.5371 34.791 50.6078 35.0199 50.6078C35.2657 50.6078 35.4627 50.532 35.6108 50.3805C35.759 50.2256 35.833 49.9984 35.833 49.6987V47.7089H36.6512ZM38.8784 49.8199H38.3127V51.2441H37.4996V47.7089H38.3127V49.1381H38.8986L39.8278 47.7089H40.6915L39.5349 49.4159L40.7268 51.2441H39.7975L38.8784 49.8199ZM45.8759 47.7089V51.2441H45.0628V48.3755H43.4669V51.2441H42.6538V47.7089H45.8759ZM48.222 47.6735C48.7169 47.6735 49.1024 47.7947 49.3785 48.0372C49.658 48.2796 49.7977 48.6196 49.7977 49.0573C49.7977 49.4715 49.6714 49.7964 49.4189 50.0321C49.1697 50.2677 48.8196 50.3856 48.3684 50.3856C48.2203 50.3856 48.0755 50.3704 47.9341 50.3401C47.796 50.3098 47.6462 50.2593 47.4846 50.1886V51.2441H46.6765V49.1533C46.6765 48.6785 46.8079 48.3132 47.0705 48.0574C47.3365 47.8015 47.7203 47.6735 48.222 47.6735ZM48.227 49.7694C48.4661 49.7694 48.6496 49.7088 48.7775 49.5876C48.9088 49.4664 48.9745 49.2947 48.9745 49.0725C48.9745 48.8469 48.9088 48.6718 48.7775 48.5472C48.6496 48.4227 48.4711 48.3604 48.2422 48.3604C48.0031 48.3604 47.8162 48.4294 47.6816 48.5674C47.5503 48.7055 47.4846 48.8991 47.4846 49.1482V49.5422C47.5856 49.6129 47.7001 49.6684 47.828 49.7088C47.9593 49.7492 48.0923 49.7694 48.227 49.7694ZM53.4989 47.7089V51.2441H52.706V50.8149C52.4636 51.1414 52.1067 51.3047 51.6353 51.3047C51.2178 51.3047 50.8913 51.1734 50.6556 50.9108C50.4233 50.6448 50.3071 50.2677 50.3071 49.7795V47.7089H51.1253V49.7543C51.1253 50.0371 51.1909 50.2509 51.3222 50.3957C51.4569 50.5371 51.6387 50.6078 51.8677 50.6078C52.1134 50.6078 52.3104 50.532 52.4586 50.3805C52.6067 50.2256 52.6808 49.9984 52.6808 49.6987V47.7089H53.4989ZM55.8271 47.6735C56.3221 47.6735 56.7076 47.7947 56.9837 48.0372C57.2631 48.2796 57.4028 48.6196 57.4028 49.0573C57.4028 49.4715 57.2766 49.7964 57.0241 50.0321C56.7749 50.2677 56.4247 50.3856 55.9736 50.3856C55.8254 50.3856 55.6807 50.3704 55.5392 50.3401C55.4012 50.3098 55.2514 50.2593 55.0898 50.1886V51.2441H54.2817V49.1533C54.2817 48.6785 54.413 48.3132 54.6756 48.0574C54.9416 47.8015 55.3254 47.6735 55.8271 47.6735ZM55.8322 49.7694C56.0712 49.7694 56.2547 49.7088 56.3827 49.5876C56.514 49.4664 56.5796 49.2947 56.5796 49.0725C56.5796 48.8469 56.514 48.6718 56.3827 48.5472C56.2547 48.4227 56.0763 48.3604 55.8473 48.3604C55.6083 48.3604 55.4214 48.4294 55.2867 48.5674C55.1554 48.7055 55.0898 48.8991 55.0898 49.1482V49.5422C55.1908 49.6129 55.3052 49.6684 55.4332 49.7088C55.5645 49.7492 55.6975 49.7694 55.8322 49.7694ZM59.6989 51.3047C59.3319 51.3047 59.0003 51.2256 58.704 51.0674C58.4111 50.9091 58.1804 50.692 58.0121 50.4159C57.8471 50.1364 57.7646 49.8233 57.7646 49.4765C57.7646 49.1297 57.8471 48.8183 58.0121 48.5422C58.1804 48.2627 58.4111 48.0439 58.704 47.8856C59.0003 47.7274 59.3319 47.6483 59.6989 47.6483C60.0659 47.6483 60.3959 47.7274 60.6888 47.8856C60.9817 48.0439 61.2123 48.2627 61.3807 48.5422C61.549 48.8183 61.6332 49.1297 61.6332 49.4765C61.6332 49.8233 61.549 50.1364 61.3807 50.4159C61.2123 50.692 60.9817 50.9091 60.6888 51.0674C60.3959 51.2256 60.0659 51.3047 59.6989 51.3047ZM59.6989 50.6078C59.9076 50.6078 60.0962 50.5607 60.2645 50.4664C60.4329 50.3687 60.5642 50.2341 60.6585 50.0624C60.7561 49.8906 60.8049 49.6954 60.8049 49.4765C60.8049 49.2577 60.7561 49.0624 60.6585 48.8907C60.5642 48.719 60.4329 48.586 60.2645 48.4917C60.0962 48.394 59.9076 48.3452 59.6989 48.3452C59.4902 48.3452 59.3016 48.394 59.1333 48.4917C58.9649 48.586 58.8319 48.719 58.7343 48.8907C58.64 49.0624 58.5929 49.2577 58.5929 49.4765C58.5929 49.6954 58.64 49.8906 58.7343 50.0624C58.8319 50.2341 58.9649 50.3687 59.1333 50.4664C59.3016 50.5607 59.4902 50.6078 59.6989 50.6078ZM66.0411 50.5775V51.9764H65.2836V51.2441H62.6978V51.9764H61.9402L61.9453 50.5775H62.3695V49.2543C62.3695 48.9142 62.4369 48.6247 62.5715 48.3856C62.7062 48.1432 62.8948 47.9597 63.1372 47.8351C63.383 47.7106 63.6675 47.6483 63.9907 47.6483C64.3139 47.6483 64.5967 47.7106 64.8392 47.8351C65.0849 47.9597 65.2752 48.1432 65.4098 48.3856C65.5445 48.6247 65.6119 48.9142 65.6119 49.2543V50.5775H66.0411ZM64.7887 50.5775V49.1836C64.7887 48.9075 64.7179 48.6988 64.5765 48.5573C64.4385 48.4159 64.2432 48.3452 63.9907 48.3452C63.7415 48.3452 63.5446 48.4159 63.3998 48.5573C63.2584 48.6988 63.1877 48.9075 63.1877 49.1836V50.5775H64.7887ZM68.2607 48.7745C68.685 48.7745 69.02 48.8839 69.2658 49.1028C69.5149 49.3216 69.6395 49.628 69.6395 50.0219C69.6395 50.4327 69.5015 50.7509 69.2254 50.9765C68.9493 51.2021 68.557 51.3148 68.0486 51.3148C67.547 51.3148 67.1665 51.2021 66.9072 50.9765C66.648 50.7509 66.5184 50.4192 66.5184 49.9815V47.7089H67.3264V48.9816C67.6463 48.8435 67.9577 48.7745 68.2607 48.7745ZM70.892 47.7089V51.2441H70.0839V47.7089H70.892ZM68.084 50.6785C68.3163 50.6785 68.4964 50.6229 68.6244 50.5118C68.7523 50.4007 68.8163 50.2458 68.8163 50.0472C68.8163 49.8418 68.7473 49.6836 68.6092 49.5725C68.4745 49.458 68.2944 49.4008 68.0688 49.4008C67.9443 49.4008 67.8163 49.421 67.685 49.4614C67.5537 49.4984 67.4342 49.5523 67.3264 49.623V49.9613C67.3264 50.1903 67.3921 50.3671 67.5234 50.4916C67.6547 50.6162 67.8416 50.6785 68.084 50.6785Z" fill="#1F7F19"/>
<path d="M14.2144 56.3992C13.9457 56.3992 13.7015 56.3398 13.4819 56.221C13.2649 56.0995 13.0944 55.9342 12.9704 55.7249C12.849 55.5157 12.7883 55.2806 12.7883 55.0196C12.7883 54.7587 12.849 54.5236 12.9704 54.3143C13.0944 54.1051 13.2649 53.941 13.4819 53.8222C13.7015 53.7008 13.9457 53.64 14.2144 53.64C14.4831 53.64 14.7246 53.6995 14.939 53.8183C15.1561 53.9371 15.3266 54.1025 15.4506 54.3143C15.5746 54.5236 15.6366 54.7587 15.6366 55.0196C15.6366 55.2806 15.5746 55.517 15.4506 55.7288C15.3266 55.9381 15.1561 56.1021 14.939 56.221C14.7246 56.3398 14.4831 56.3992 14.2144 56.3992ZM14.2144 56.1435C14.4288 56.1435 14.6226 56.0957 14.7957 56.0001C14.9688 55.9019 15.1044 55.7676 15.2026 55.597C15.3007 55.424 15.3498 55.2315 15.3498 55.0196C15.3498 54.8078 15.3007 54.6166 15.2026 54.4461C15.1044 54.273 14.9688 54.1387 14.7957 54.0431C14.6226 53.9449 14.4288 53.8958 14.2144 53.8958C13.9999 53.8958 13.8049 53.9449 13.6292 54.0431C13.4561 54.1387 13.3192 54.273 13.2184 54.4461C13.1203 54.6166 13.0712 54.8078 13.0712 55.0196C13.0712 55.2315 13.1203 55.424 13.2184 55.597C13.3192 55.7676 13.4561 55.9019 13.6292 56.0001C13.8049 56.0957 13.9999 56.1435 14.2144 56.1435ZM17.4846 56.376L16.8374 55.5234L16.1864 56.376H15.8763L16.6824 55.3297L15.9151 54.3376H16.2251L16.8374 55.1359L17.4497 54.3376H17.752L16.9847 55.3297L17.7985 56.376H17.4846ZM19.1872 54.3221C19.3862 54.3221 19.5631 54.366 19.7182 54.4538C19.8732 54.5417 19.9933 54.6644 20.0786 54.822C20.1664 54.9796 20.2103 55.1591 20.2103 55.3607C20.2103 55.5622 20.1677 55.7417 20.0824 55.8993C19.9972 56.0543 19.8783 56.1758 19.7259 56.2636C19.5761 56.3514 19.4043 56.3954 19.2105 56.3954C19.04 56.3954 18.8876 56.3618 18.7532 56.2946C18.6215 56.2248 18.5142 56.1254 18.4316 55.9962V57.1278H18.1564V55.3645C18.1564 55.1604 18.1991 54.9796 18.2843 54.822C18.3721 54.6644 18.4936 54.5417 18.6486 54.4538C18.8062 54.366 18.9857 54.3221 19.1872 54.3221ZM19.1795 56.1551C19.3242 56.1551 19.4546 56.1215 19.5709 56.0543C19.6872 55.9872 19.7776 55.8929 19.8422 55.7714C19.9068 55.65 19.939 55.5131 19.939 55.3607C19.939 55.2082 19.9068 55.0713 19.8422 54.9499C19.7776 54.8285 19.6872 54.7342 19.5709 54.667C19.4546 54.5972 19.3242 54.5624 19.1795 54.5624C19.0348 54.5624 18.9043 54.5959 18.7881 54.6631C18.6744 54.7303 18.5853 54.8246 18.5207 54.946C18.4587 55.0648 18.4277 55.2018 18.4277 55.3568C18.4277 55.5118 18.4587 55.65 18.5207 55.7714C18.5853 55.8929 18.6744 55.9872 18.7881 56.0543C18.9043 56.1215 19.0348 56.1551 19.1795 56.1551ZM22.6563 54.3376V56.376H22.3928V55.9729C22.3101 56.1099 22.2003 56.2145 22.0634 56.2868C21.929 56.3592 21.7766 56.3954 21.6061 56.3954C21.4149 56.3954 21.2418 56.3514 21.0868 56.2636C20.9318 56.1758 20.8104 56.053 20.7225 55.8954C20.6347 55.7378 20.5908 55.5583 20.5908 55.3568C20.5908 55.1553 20.6347 54.9757 20.7225 54.8181C20.8104 54.6605 20.9318 54.5391 21.0868 54.4538C21.2418 54.366 21.4149 54.3221 21.6061 54.3221C21.7714 54.3221 21.92 54.357 22.0518 54.4267C22.1861 54.4939 22.2959 54.5934 22.3812 54.7251V54.3376H22.6563ZM21.6294 56.1512C21.7714 56.1512 21.8993 56.1189 22.013 56.0543C22.1293 55.9872 22.2197 55.8929 22.2843 55.7714C22.3514 55.65 22.385 55.5118 22.385 55.3568C22.385 55.2018 22.3514 55.0636 22.2843 54.9421C22.2197 54.8207 22.1293 54.7277 22.013 54.6631C21.8993 54.5959 21.7714 54.5624 21.6294 54.5624C21.4847 54.5624 21.3542 54.5959 21.238 54.6631C21.1243 54.7277 21.0339 54.8207 20.9667 54.9421C20.9021 55.0636 20.8698 55.2018 20.8698 55.3568C20.8698 55.5118 20.9021 55.65 20.9667 55.7714C21.0339 55.8929 21.1243 55.9872 21.238 56.0543C21.3542 56.1189 21.4847 56.1512 21.6294 56.1512ZM23.4303 54.3376H23.7055V55.2405H24.9882V54.3376H25.2633V56.376H24.9882V55.4769H23.7055V56.376H23.4303V54.3376ZM27.8977 54.3376V56.376H27.6342V55.9729C27.5516 56.1099 27.4418 56.2145 27.3048 56.2868C27.1705 56.3592 27.0181 56.3954 26.8476 56.3954C26.6564 56.3954 26.4833 56.3514 26.3283 56.2636C26.1733 56.1758 26.0518 56.053 25.964 55.8954C25.8762 55.7378 25.8322 55.5583 25.8322 55.3568C25.8322 55.1553 25.8762 54.9757 25.964 54.8181C26.0518 54.6605 26.1733 54.5391 26.3283 54.4538C26.4833 54.366 26.6564 54.3221 26.8476 54.3221C27.0129 54.3221 27.1614 54.357 27.2932 54.4267C27.4276 54.4939 27.5373 54.5934 27.6226 54.7251V54.3376H27.8977ZM26.8708 56.1512C27.0129 56.1512 27.1408 56.1189 27.2545 56.0543C27.3707 55.9872 27.4611 55.8929 27.5257 55.7714C27.5929 55.65 27.6265 55.5118 27.6265 55.3568C27.6265 55.2018 27.5929 55.0636 27.5257 54.9421C27.4611 54.8207 27.3707 54.7277 27.2545 54.6631C27.1408 54.5959 27.0129 54.5624 26.8708 54.5624C26.7261 54.5624 26.5957 54.5959 26.4794 54.6631C26.3657 54.7277 26.2753 54.8207 26.2081 54.9421C26.1435 55.0636 26.1113 55.2018 26.1113 55.3568C26.1113 55.5118 26.1435 55.65 26.2081 55.7714C26.2753 55.8929 26.3657 55.9872 26.4794 56.0543C26.5957 56.1189 26.7261 56.1512 26.8708 56.1512ZM31.5151 54.3376V56.376H31.24V54.5817H29.9611V56.376H29.686V54.3376H31.5151ZM33.2351 54.3221C33.434 54.3221 33.611 54.366 33.766 54.4538C33.921 54.5417 34.0411 54.6644 34.1264 54.822C34.2142 54.9796 34.2581 55.1591 34.2581 55.3607C34.2581 55.5622 34.2155 55.7417 34.1303 55.8993C34.045 56.0543 33.9262 56.1758 33.7737 56.2636C33.6239 56.3514 33.4521 56.3954 33.2583 56.3954C33.0878 56.3954 32.9354 56.3618 32.801 56.2946C32.6693 56.2248 32.5621 56.1254 32.4794 55.9962V57.1278H32.2043V55.3645C32.2043 55.1604 32.2469 54.9796 32.3321 54.822C32.42 54.6644 32.5414 54.5417 32.6964 54.4538C32.854 54.366 33.0336 54.3221 33.2351 54.3221ZM33.2273 56.1551C33.372 56.1551 33.5025 56.1215 33.6187 56.0543C33.735 55.9872 33.8254 55.8929 33.89 55.7714C33.9546 55.65 33.9869 55.5131 33.9869 55.3607C33.9869 55.2082 33.9546 55.0713 33.89 54.9499C33.8254 54.8285 33.735 54.7342 33.6187 54.667C33.5025 54.5972 33.372 54.5624 33.2273 54.5624C33.0827 54.5624 32.9522 54.5959 32.8359 54.6631C32.7223 54.7303 32.6331 54.8246 32.5685 54.946C32.5065 55.0648 32.4755 55.2018 32.4755 55.3568C32.4755 55.5118 32.5065 55.65 32.5685 55.7714C32.6331 55.8929 32.7223 55.9872 32.8359 56.0543C32.9522 56.1215 33.0827 56.1551 33.2273 56.1551ZM36.646 54.3376V56.376H36.3825V56.004C36.3102 56.128 36.2107 56.2248 36.0841 56.2946C35.9575 56.3618 35.8128 56.3954 35.6501 56.3954C35.3814 56.3954 35.1695 56.3217 35.0145 56.1745C34.8621 56.0246 34.7859 55.8063 34.7859 55.5195V54.3376H35.061V55.4924C35.061 55.7068 35.114 55.8696 35.2199 55.9807C35.3258 56.0918 35.4783 56.1473 35.6772 56.1473C35.8916 56.1473 36.0608 56.0827 36.1849 55.9536C36.3089 55.8218 36.3709 55.6397 36.3709 55.4072V54.3376H36.646ZM38.3668 54.3221C38.5657 54.3221 38.7427 54.366 38.8977 54.4538C39.0527 54.5417 39.1728 54.6644 39.2581 54.822C39.3459 54.9796 39.3898 55.1591 39.3898 55.3607C39.3898 55.5622 39.3472 55.7417 39.262 55.8993C39.1767 56.0543 39.0579 56.1758 38.9054 56.2636C38.7556 56.3514 38.5838 56.3954 38.39 56.3954C38.2195 56.3954 38.0671 56.3618 37.9327 56.2946C37.801 56.2248 37.6938 56.1254 37.6111 55.9962V57.1278H37.336V55.3645C37.336 55.1604 37.3786 54.9796 37.4638 54.822C37.5517 54.6644 37.6731 54.5417 37.8281 54.4538C37.9857 54.366 38.1653 54.3221 38.3668 54.3221ZM38.359 56.1551C38.5037 56.1551 38.6342 56.1215 38.7504 56.0543C38.8667 55.9872 38.9571 55.8929 39.0217 55.7714C39.0863 55.65 39.1186 55.5131 39.1186 55.3607C39.1186 55.2082 39.0863 55.0713 39.0217 54.9499C38.9571 54.8285 38.8667 54.7342 38.7504 54.667C38.6342 54.5972 38.5037 54.5624 38.359 54.5624C38.2144 54.5624 38.0839 54.5959 37.9676 54.6631C37.854 54.7303 37.7648 54.8246 37.7002 54.946C37.6382 55.0648 37.6072 55.2018 37.6072 55.3568C37.6072 55.5118 37.6382 55.65 37.7002 55.7714C37.7648 55.8929 37.854 55.9872 37.9676 56.0543C38.0839 56.1215 38.2144 56.1551 38.359 56.1551ZM40.8244 56.3954C40.628 56.3954 40.4511 56.3514 40.2935 56.2636C40.1359 56.1732 40.0119 56.0492 39.9215 55.8916C39.831 55.734 39.7858 55.5557 39.7858 55.3568C39.7858 55.1579 39.831 54.9796 39.9215 54.822C40.0119 54.6644 40.1359 54.5417 40.2935 54.4538C40.4511 54.366 40.628 54.3221 40.8244 54.3221C41.0207 54.3221 41.1977 54.366 41.3553 54.4538C41.5129 54.5417 41.6356 54.6644 41.7235 54.822C41.8139 54.9796 41.8591 55.1579 41.8591 55.3568C41.8591 55.5557 41.8139 55.734 41.7235 55.8916C41.6356 56.0492 41.5129 56.1732 41.3553 56.2636C41.1977 56.3514 41.0207 56.3954 40.8244 56.3954ZM40.8244 56.1512C40.9691 56.1512 41.0982 56.1189 41.2119 56.0543C41.3282 55.9872 41.4186 55.8929 41.4832 55.7714C41.5478 55.65 41.5801 55.5118 41.5801 55.3568C41.5801 55.2018 41.5478 55.0636 41.4832 54.9421C41.4186 54.8207 41.3282 54.7277 41.2119 54.6631C41.0982 54.5959 40.9691 54.5624 40.8244 54.5624C40.6797 54.5624 40.5492 54.5959 40.433 54.6631C40.3193 54.7277 40.2289 54.8207 40.1617 54.9421C40.0971 55.0636 40.0648 55.2018 40.0648 55.3568C40.0648 55.5118 40.0971 55.65 40.1617 55.7714C40.2289 55.8929 40.3193 55.9872 40.433 56.0543C40.5492 56.1189 40.6797 56.1512 40.8244 56.1512ZM44.3305 54.3376V56.128C44.3305 56.4741 44.2453 56.7299 44.0747 56.8953C43.9068 57.0632 43.6523 57.1472 43.3113 57.1472C43.1227 57.1472 42.9432 57.1187 42.7727 57.0619C42.6047 57.0076 42.4678 56.9314 42.3619 56.8333L42.5014 56.624C42.5996 56.7118 42.7184 56.7803 42.8579 56.8294C43 56.8785 43.1486 56.903 43.3036 56.903C43.5619 56.903 43.7518 56.8423 43.8732 56.7209C43.9947 56.602 44.0554 56.416 44.0554 56.1628V55.9032C43.9701 56.0324 43.8577 56.1305 43.7182 56.1977C43.5813 56.2649 43.4289 56.2985 43.2609 56.2985C43.0698 56.2985 42.8954 56.2571 42.7378 56.1745C42.5828 56.0892 42.46 55.9717 42.3696 55.8218C42.2818 55.6694 42.2379 55.4976 42.2379 55.3064C42.2379 55.1152 42.2818 54.9447 42.3696 54.7949C42.46 54.645 42.5828 54.5288 42.7378 54.4461C42.8928 54.3634 43.0672 54.3221 43.2609 54.3221C43.434 54.3221 43.5903 54.357 43.7298 54.4267C43.8694 54.4965 43.9817 54.5972 44.067 54.729V54.3376H44.3305ZM43.2881 56.0543C43.4353 56.0543 43.5684 56.0233 43.6872 55.9613C43.8061 55.8967 43.8978 55.8076 43.9624 55.6939C44.0295 55.5803 44.0631 55.4511 44.0631 55.3064C44.0631 55.1617 44.0295 55.0338 43.9624 54.9228C43.8978 54.8091 43.8061 54.7212 43.6872 54.6592C43.571 54.5946 43.4379 54.5624 43.2881 54.5624C43.1408 54.5624 43.0078 54.5934 42.8889 54.6554C42.7727 54.7174 42.6809 54.8052 42.6138 54.9189C42.5492 55.0326 42.5169 55.1617 42.5169 55.3064C42.5169 55.4511 42.5492 55.5803 42.6138 55.6939C42.6809 55.8076 42.7727 55.8967 42.8889 55.9613C43.0078 56.0233 43.1408 56.0543 43.2881 56.0543ZM45.9251 56.4186C45.6461 56.4186 45.4316 56.3501 45.2818 56.2132C45.1345 56.0737 45.0609 55.8774 45.0609 55.6242V54.3376H45.336V55.1863C45.3981 55.1113 45.4846 55.0493 45.5957 55.0003C45.7068 54.9512 45.836 54.9266 45.9832 54.9266C46.2312 54.9266 46.4237 54.9912 46.5606 55.1204C46.7001 55.247 46.7699 55.4201 46.7699 55.6397C46.7699 55.7921 46.735 55.9277 46.6653 56.0466C46.5981 56.1628 46.4999 56.2546 46.3707 56.3217C46.2442 56.3863 46.0956 56.4186 45.9251 56.4186ZM47.1032 54.3376H47.3783V56.376H47.1032V54.3376ZM45.9328 56.2055C46.1085 56.2055 46.2454 56.1538 46.3436 56.0505C46.4418 55.9445 46.4909 55.8102 46.4909 55.6474C46.4909 55.495 46.4405 55.3723 46.3397 55.2793C46.239 55.1837 46.0969 55.1359 45.9135 55.1359C45.7791 55.1359 45.6616 55.1643 45.5608 55.2211C45.4626 55.278 45.3877 55.3568 45.336 55.4575V55.6436C45.336 55.8192 45.3864 55.9574 45.4872 56.0582C45.5905 56.1564 45.7391 56.2055 45.9328 56.2055ZM49.017 55.2056H50.0323V55.4459H49.017V55.2056ZM52.224 54.3221C52.4281 54.3221 52.6115 54.3673 52.7743 54.4577C52.9396 54.5456 53.0688 54.6683 53.1618 54.8259C53.2574 54.9835 53.3052 55.1604 53.3052 55.3568C53.3052 55.5531 53.2574 55.7314 53.1618 55.8916C53.0688 56.0492 52.9396 56.1732 52.7743 56.2636C52.6115 56.354 52.4281 56.3992 52.224 56.3992C52.0535 56.3992 51.8972 56.3734 51.7551 56.3217C51.613 56.2675 51.4928 56.19 51.3947 56.0892L51.5574 55.9264C51.7305 56.0892 51.9488 56.1706 52.2123 56.1706C52.3596 56.1706 52.4927 56.1396 52.6115 56.0776C52.7329 56.0156 52.8311 55.929 52.906 55.8179C52.9835 55.7068 53.0287 55.5828 53.0416 55.4459H51.9527V55.2366H53.0378C53.0094 55.0326 52.9189 54.8672 52.7665 54.7406C52.6141 54.6114 52.4294 54.5469 52.2123 54.5469C51.9488 54.5469 51.7305 54.6282 51.5574 54.791L51.3947 54.6321C51.4928 54.5314 51.613 54.4551 51.7551 54.4035C51.8972 54.3492 52.0535 54.3221 52.224 54.3221ZM56.4259 54.3221C56.6816 54.3221 56.8819 54.3957 57.0265 54.543C57.1738 54.6902 57.2474 54.9073 57.2474 55.194V56.376H56.9723V55.2211C56.9723 55.0093 56.9206 54.8478 56.8173 54.7367C56.7165 54.6256 56.5731 54.5701 56.3871 54.5701C56.1753 54.5701 56.0086 54.636 55.8872 54.7677C55.7658 54.8969 55.7051 55.0765 55.7051 55.3064V56.376H55.4299V55.2211C55.4299 55.0093 55.3783 54.8478 55.2749 54.7367C55.1742 54.6256 55.0295 54.5701 54.8409 54.5701C54.6316 54.5701 54.465 54.636 54.341 54.7677C54.2196 54.8969 54.1588 55.0765 54.1588 55.3064V56.376H53.8837V54.3376H54.1472V54.7096C54.2196 54.5856 54.3203 54.49 54.4495 54.4228C54.5787 54.3557 54.7272 54.3221 54.8951 54.3221C55.0657 54.3221 55.2129 54.3583 55.3369 54.4306C55.4635 54.5029 55.5578 54.6101 55.6198 54.7522C55.6947 54.6179 55.802 54.5133 55.9415 54.4383C56.0836 54.3608 56.245 54.3221 56.4259 54.3221ZM58.808 56.3954C58.6117 56.3954 58.4347 56.3514 58.2771 56.2636C58.1195 56.1732 57.9955 56.0492 57.9051 55.8916C57.8147 55.734 57.7695 55.5557 57.7695 55.3568C57.7695 55.1579 57.8147 54.9796 57.9051 54.822C57.9955 54.6644 58.1195 54.5417 58.2771 54.4538C58.4347 54.366 58.6117 54.3221 58.808 54.3221C59.0044 54.3221 59.1814 54.366 59.339 54.4538C59.4965 54.5417 59.6193 54.6644 59.7071 54.822C59.7975 54.9796 59.8427 55.1579 59.8427 55.3568C59.8427 55.5557 59.7975 55.734 59.7071 55.8916C59.6193 56.0492 59.4965 56.1732 59.339 56.2636C59.1814 56.3514 59.0044 56.3954 58.808 56.3954ZM58.808 56.1512C58.9527 56.1512 59.0819 56.1189 59.1956 56.0543C59.3118 55.9872 59.4022 55.8929 59.4668 55.7714C59.5314 55.65 59.5637 55.5118 59.5637 55.3568C59.5637 55.2018 59.5314 55.0636 59.4668 54.9421C59.4022 54.8207 59.3118 54.7277 59.1956 54.6631C59.0819 54.5959 58.9527 54.5624 58.808 54.5624C58.6634 54.5624 58.5329 54.5959 58.4166 54.6631C58.303 54.7277 58.2125 54.8207 58.1454 54.9421C58.0808 55.0636 58.0485 55.2018 58.0485 55.3568C58.0485 55.5118 58.0808 55.65 58.1454 55.7714C58.2125 55.8929 58.303 55.9872 58.4166 56.0543C58.5329 56.1189 58.6634 56.1512 58.808 56.1512ZM15.501 58.3221C15.7567 58.3221 15.9569 58.3957 16.1016 58.543C16.2489 58.6902 16.3225 58.9073 16.3225 59.194V60.376H16.0474V59.2211C16.0474 59.0093 15.9957 58.8478 15.8924 58.7367C15.7916 58.6256 15.6482 58.5701 15.4622 58.5701C15.2504 58.5701 15.0837 58.636 14.9623 58.7677C14.8409 58.8969 14.7802 59.0765 14.7802 59.3064V60.376H14.505V59.2211C14.505 59.0093 14.4533 58.8478 14.35 58.7367C14.2492 58.6256 14.1046 58.5701 13.916 58.5701C13.7067 58.5701 13.5401 58.636 13.4161 58.7677C13.2946 58.8969 13.2339 59.0765 13.2339 59.3064V60.376H12.9588V58.3376H13.2223V58.7096C13.2946 58.5856 13.3954 58.49 13.5246 58.4228C13.6537 58.3557 13.8023 58.3221 13.9702 58.3221C14.1407 58.3221 14.288 58.3583 14.412 58.4306C14.5386 58.5029 14.6329 58.6101 14.6949 58.7522C14.7698 58.6179 14.877 58.5133 15.0166 58.4383C15.1586 58.3608 15.3201 58.3221 15.501 58.3221ZM17.8521 60.4186C17.5731 60.4186 17.3587 60.3501 17.2088 60.2132C17.0616 60.0737 16.9879 59.8774 16.9879 59.6242V58.3376H17.2631V59.1863C17.3251 59.1113 17.4116 59.0493 17.5227 59.0003C17.6338 58.9512 17.763 58.9266 17.9103 58.9266C18.1583 58.9266 18.3507 58.9912 18.4877 59.1204C18.6272 59.247 18.6969 59.4201 18.6969 59.6397C18.6969 59.7921 18.6621 59.9277 18.5923 60.0466C18.5251 60.1628 18.427 60.2546 18.2978 60.3217C18.1712 60.3863 18.0226 60.4186 17.8521 60.4186ZM19.0302 58.3376H19.3053V60.376H19.0302V58.3376ZM17.8599 60.2055C18.0356 60.2055 18.1725 60.1538 18.2707 60.0505C18.3688 59.9445 18.4179 59.8102 18.4179 59.6474C18.4179 59.495 18.3675 59.3723 18.2668 59.2793C18.166 59.1837 18.0239 59.1359 17.8405 59.1359C17.7062 59.1359 17.5886 59.1643 17.4878 59.2211C17.3897 59.278 17.3148 59.3568 17.2631 59.4575V59.6436C17.2631 59.8192 17.3135 59.9574 17.4142 60.0582C17.5176 60.1564 17.6661 60.2055 17.8599 60.2055Z" fill="#1F7F19"/>
<path d="M77.6838 48.748C75.0591 47.512 69.777 43.7924 69.6462 38.8023C71.2374 38.8966 73.339 39.3231 75.0902 40.272C77.7245 41.6994 79.5659 44.309 77.6838 48.748ZM77.6838 48.748C77.4833 45.4962 75.396 43.4113 74.3774 42.7753" stroke="#1F7F19" stroke-width="0.776781"/>
<path d="M43.0763 78.4619C42.1877 75.7002 39.1774 69.9841 34.2455 69.2134C34.1346 70.8035 34.2876 72.9424 35.0037 74.801C36.0809 77.5969 38.4323 79.7582 43.0763 78.4619ZM43.0763 78.4619C39.8772 77.8453 38.0777 75.5075 37.5778 74.4157" stroke="#1F7F19" stroke-width="0.776781"/>
<path d="M1.45581 48.3792C4.30875 47.8524 10.364 45.6009 11.7614 40.8087C10.1988 40.4946 8.05782 40.3717 6.12269 40.8433C3.21169 41.5527 0.766416 43.6072 1.45581 48.3792ZM1.45581 48.3792C2.47795 45.2858 5.02743 43.8012 6.17441 43.4456" stroke="#1F7F19" stroke-width="0.776781"/>
</svg>
